<?xml version="1.0" encoding="utf-8"?>
<!-- Generator: Adobe Illustrator 27.5.0, SVG Export Plug-In . SVG Version: 6.00 Build 0)  -->
<svg version="1.1" xmlns="http://www.w3.org/2000/svg" xmlns:xlink="http://www.w3.org/1999/xlink" x="0px" y="0px"
	 viewBox="0 0 750 500" style="enable-background:new 0 0 750 500;" xml:space="preserve">
<g id="BACKGROUND">
	<rect style="fill:#F0E3DA;" width="750" height="500"/>
	<g>
		<g>
			<path style="fill:#082439;" d="M37.073,424.538c88.417,0.611,176.849,0.183,265.268,0.177
				c87.758-0.005,175.515,0.004,263.273-0.033c49.856-0.021,99.734,0.374,149.587-0.177c0.513-0.006,0.513-0.791,0-0.797
				c-88.403-0.978-176.859-0.196-265.268-0.201c-87.758-0.005-175.515-0.011-263.273-0.016c-49.861-0.003-99.727-0.16-149.587,0.184
				C36.518,423.679,36.517,424.534,37.073,424.538L37.073,424.538z"/>
		</g>
	</g>
</g>
<g id="OBJECTS">
	<g>
		<g>
			<path style="fill:#B3BBCE;" d="M251.494,436.04c-6.012,0.286-13.311,1.145-24.905-4.723c-11.594-5.868-26.05-17.176-26.05-17.176
				s-1.96-0.6-5.165-1.669c19.803-1.55,42.657-12.24,51.435-33.476c11.914-28.825-4.996-59.187-11.53-54.959
				s20.754,34.397-6.341,63.414c-27.088,29.009-82.305,2.25-82.334,2.236c-18.741-13.654-43.206-37.761-41.819-51.978
				c1.272-13.037,3.09-19.714,2.206-24.279c-0.001-0.007-4.21-28.966-6.214-29.252c-1.661-0.237-10.202,12.895-13.077,17.395
				c-1.237-3.98-3.252-9.632-4.649-9.353c-1.566,0.313-4.335,7.159-5.719,10.841c-5.682,0.309-12.467,1.311-15.916,4.16
				c-6.584,5.439-10.449,7.872-10.449,7.872s-1.145,21.327,15.029,22.901c0,0,3.578,6.298-0.286,14.456s-11.307,23.474-2.576,40.363
				c8.731,16.889,16.031,46.947,13.454,53.817c-0.039,0.105-0.083,0.197-0.125,0.296c-0.443,0.389-0.814,0.936-1.081,1.731
				c-3.104,3.281-8.528-0.98-8.528,7.993c0,0,11.594,2.863,15.601-3.578c0.05-0.081,0.1-0.177,0.15-0.263
				c3.023-0.288,6.181-1.331,7.917-4.12c2.314-3.718,4.528-13.627,5.99-21.347c11.077,9.451,35.49,27.566,63.377,31.026
				c38.073,4.723,53.388-6.441,53.388-6.441s12.309,9.916,25.048,7.606c12.739-2.31,16.174-9.18,31.203-5.745
				c15.029,3.435,15.745,8.302,20.468,2.576C289.996,456.365,257.505,435.754,251.494,436.04z"/>
			<g>
				<path style="fill:#B3BBCE;" d="M235.279,324.037c-3.567,2.308,2.945,12.347,5.187,25.709c3.361-0.578,6.551-1.707,9.359-3.481
					C246.943,331.55,239.224,321.484,235.279,324.037z"/>
				<path style="fill:#B3BBCE;" d="M77.086,441.431c0.079,2.26-0.07,4.057-0.499,5.2c-0.039,0.105-0.083,0.197-0.125,0.296
					c-0.443,0.389-0.814,0.936-1.081,1.731c-3.104,3.281-8.528-0.98-8.528,7.993c0,0,11.594,2.863,15.601-3.578
					c0.05-0.081,0.1-0.177,0.15-0.263c3.023-0.288,6.181-1.331,7.917-4.12c0.896-1.441,1.778-3.816,2.606-6.629
					C88.031,443.642,82.304,443.432,77.086,441.431z"/>
				<path style="fill:#B3BBCE;" d="M105.733,383.878c9.901,12.73,24.799,10.447,35.86,2.01
					c-13.25-10.411-27.857-24.822-33.945-36.866C100.039,359.142,97.62,374.142,105.733,383.878z"/>
				<path style="fill:#B3BBCE;" d="M230.733,446.878c10.143,2.898,21.334-0.506,29.013-7.925c-3.749-1.807-6.789-2.983-8.252-2.913
					c-6.012,0.286-13.311,1.145-24.905-4.723c-5.881-2.977-12.495-7.351-17.589-10.941
					C208.205,433.245,219.062,443.287,230.733,446.878z"/>
				<path style="fill:#B3BBCE;" d="M162.733,434.878c-15.59-6.063-34.174-4.616-45.37,7.573
					c11.821,7.19,26.605,13.942,42.527,15.918c9.995,1.24,18.407,1.379,25.4,0.918C180.938,448.296,174.157,438.686,162.733,434.878
					z"/>
				<path style="fill:#B3BBCE;" d="M79.733,384.878c2-6,2-12-1-17c-3.639-6.066-9.489-8.805-15.759-9.364
					c-3.548,8.624-6.733,20.97,0.158,34.301c0.943,1.824,1.869,3.804,2.768,5.89C71.644,395.412,76.629,391.086,79.733,384.878z"/>
				<path style="fill:#B3BBCE;" d="M274.682,447.071c-0.793,2.615-2.027,5.024-3.664,7.075c13.589,3.399,14.417,7.748,18.978,2.219
					C289.996,456.365,282.874,451.847,274.682,447.071z"/>
				<path style="fill:#B3BBCE;" d="M87.733,308.878c3.364,7.402,11.257,12.531,19.107,12.358c0.398-3.28,0.547-5.759,0.15-7.806
					c-0.001-0.007-4.21-28.966-6.214-29.252c-1.661-0.237-10.202,12.895-13.077,17.395c-0.41-1.318-0.905-2.818-1.435-4.227
					C85.257,301.19,86.195,305.034,87.733,308.878z"/>
			</g>
			<g>
				<g>
					<g>
						<path style="fill:#082439;" d="M62.7,314.702c1.091-0.332,2.169-0.677,3.301-0.839c1.158-0.166,2.324-0.104,3.482-0.227
							c0.722-0.077,0.736-1.073,0-1.134c-2.315-0.194-5.307,0.02-7.139,1.59C62.063,314.332,62.363,314.805,62.7,314.702
							L62.7,314.702z"/>
					</g>
				</g>
				<g>
					<g>
						<path style="fill:#082439;" d="M58.918,320.504c6.289-0.154,12.553-0.808,18.851-0.9c6.307-0.092,12.581,0.404,18.878,0.453
							c0.485,0.004,0.451-0.672,0-0.731c-12.071-1.581-25.797-1.384-37.783,0.773C58.633,320.14,58.689,320.51,58.918,320.504
							L58.918,320.504z"/>
					</g>
				</g>
				<g>
					<g>
						<path style="fill:#082439;" d="M59.452,321.443c8.791,0.806,17.434,2,26.16,3.313c0.301,0.045,0.442-0.392,0.13-0.47
							c-8.487-2.114-17.555-3.146-26.289-3.284C59.164,320.998,59.174,321.418,59.452,321.443L59.452,321.443z"/>
					</g>
				</g>
				<g>
					<g>
						<path style="fill:#082439;" d="M59.605,323.367c2.899,0.956,5.823,1.838,8.674,2.933c2.827,1.086,5.517,2.65,8.41,3.523
							c0.229,0.069,0.319-0.234,0.152-0.36c-4.597-3.458-11.559-5.431-17.121-6.512C59.448,322.899,59.339,323.28,59.605,323.367
							L59.605,323.367z"/>
					</g>
				</g>
				<g>
					<g>
						<path style="fill:#082439;" d="M100.185,286.485c0.111,3.939,0.311,7.736-0.76,11.593c-0.97,3.494-2.869,6.167-4.885,9.099
							c-0.245,0.356,0.265,0.654,0.552,0.426c5.915-4.684,7.258-14.262,5.637-21.192
							C100.657,286.109,100.176,286.173,100.185,286.485L100.185,286.485z"/>
					</g>
				</g>
				<g>
					<g>
						<path style="fill:#082439;" d="M64.411,305.59c9.622-2.289,18.495-1.788,28.231-1.846c0.239-0.001,0.311-0.393,0.059-0.433
							c-9.171-1.453-19.572-1.109-28.359,2.026C64.184,305.393,64.245,305.63,64.411,305.59L64.411,305.59z"/>
					</g>
				</g>
				<path style="fill:#082439;" d="M52.442,315.239c-0.006-0.075-0.034-0.148-0.118-0.196c-0.573-0.328-1.484-0.422-2.07-0.06
					c-0.611,0.377-0.621,1.228-0.436,1.842c0.184,0.615,0.656,1.45,1.346,1.593c0.768,0.16,1.185-0.601,1.388-1.212
					C52.738,316.646,52.962,315.693,52.442,315.239z"/>
				<g>
					<g>
						<path style="fill:#082439;" d="M89.762,413.931c0.566,7.995-0.506,15.71-2.659,23.413c-1.759,6.295-3.305,13.136-7.679,18.164
							c-0.267,0.307,0.128,0.679,0.438,0.438c4.996-3.894,6.304-11.662,7.906-17.424c2.236-8.044,3.612-16.31,2.317-24.634
							C90.056,413.706,89.749,413.748,89.762,413.931L89.762,413.931z"/>
					</g>
				</g>
				<g>
					<g>
						<path style="fill:#082439;" d="M236.526,334.811c2.6,0.461,6.172-1.252,7.509-3.525c0.18-0.305-0.221-0.581-0.471-0.364
							c-1.035,0.897-1.915,1.831-3.179,2.436c-1.25,0.599-2.528,0.731-3.859,1.027C236.321,334.432,236.31,334.773,236.526,334.811
							L236.526,334.811z"/>
					</g>
				</g>
				<g>
					<g>
						<path style="fill:#082439;" d="M211.083,448.513c6.115,8.81,21.441,15.526,31.544,9.948c0.312-0.172,0.096-0.734-0.249-0.591
							c-11.5,4.748-22.947-1.652-31.088-9.516C211.186,448.254,210.996,448.386,211.083,448.513L211.083,448.513z"/>
					</g>
				</g>
				<g>
					<g>
						<path style="fill:#082439;" d="M51.112,316.5c-1.105,5.684,0.855,12.583,4.871,16.832c4.407,4.663,11.366,5.523,17.396,4.521
							c0.358-0.06,0.277-0.659-0.086-0.635c-5.949,0.385-12.342,0.228-16.76-4.435c-3.9-4.116-5.698-10.76-5.219-16.255
							C51.324,316.412,51.134,316.385,51.112,316.5L51.112,316.5z"/>
					</g>
				</g>
			</g>
		</g>
		<g>
			<path style="fill:#C890CD;" d="M475.734,452.508c7.531-4.303,65.893-7.531,65.893-7.531s-22.323-23.399-24.743-51.101
				c-2.421-27.702,39.267-67.238,59.438-76.651c0,0,2.547-1.18,6.683-2.086c-4.495-10.428-3.504-20.946,9.222-26.354
				c12.058-5.123,26.862-0.6,37.551,5.843c12.739,7.678,22.921,19.05,34.571,28.181c6.308,4.944,13.006,9.762,20.405,12.942
				c8.365,3.595,16.748,3.792,25.657,4.277c2.325,0.127,2.935,2.896,1.136,4.193c-12.421,8.951-30.484,1.336-41.961-5.932
				c-13.79-8.732-25.017-20.378-37.713-30.469c-6.405-5.092-13.862-10.113-21.999-11.763c-6.103-1.237-16.159-1.406-19.341,5.369
				c-1.83,3.896-0.648,8.488,1.568,12.695c4.719-0.027,10.125,0.734,15.688,3.105c16.406,6.993,39.536,18.289,45.721,36.308
				c6.186,18.02,8.607,43.839,8.607,43.839s15.868,19.902,19.364,28.778c3.496,8.875,11.027,32.812-5.917,37.653
				c0,0-9.682-3.227-6.724-8.068c2.958-4.841,8.875,0.269,5.648-10.22c-3.227-10.489-9.413-22.323-17.751-30.66
				c-8.338-8.337-38.998-8.606-54.866-34.157c0,0-25.281,15.061-22.054,30.391c3.227,15.33,14.254,17.926,21.247,9.366
				c6.993-8.56,17.751-9.635,17.751-9.635s19.095,9.682,23.668,35.232l17.751,8.069c0,0-8.875,10.469-25.55,7.655
				c0,0-17.482,5.524-38.729-1.469c-21.247-6.993-30.122,2.958-77.727,0S468.204,456.811,475.734,452.508z"/>
			<g>
				<path style="fill:#C890CD;" d="M684.754,335.751c8.365,3.595,16.748,3.792,25.657,4.277c2.325,0.127,2.935,2.896,1.136,4.193
					c-8.916,6.425-20.739,4.314-30.946-0.077c0.55-3.123,1.617-6.103,3.314-8.781C684.196,335.49,684.471,335.63,684.754,335.751z"
					/>
				<path style="fill:#C890CD;" d="M675.564,463.804c0,0-9.682-3.227-6.724-8.068c2.958-4.841,8.875,0.269,5.648-10.22
					c-0.073-0.237-0.156-0.479-0.232-0.718c4.078-0.563,8.004-1.954,11.336-4.225C687.191,450.209,686.197,460.766,675.564,463.804z
					"/>
				<path style="fill:#C890CD;" d="M475.734,452.508c2.465-1.408,10.374-2.702,19.901-3.804c-0.683,3.295-0.526,6.783,0.343,10.153
					C470.067,457.015,469.616,456.004,475.734,452.508z"/>
				<path style="fill:#C890CD;" d="M542.546,405.513c-2.524,8.582-8.618,14.611-16.09,17.968
					c-4.559-8.418-8.616-18.672-9.571-29.604c-0.792-9.062,3.138-19.391,9.489-29.517
					C539.631,372.68,546.756,390.075,542.546,405.513z"/>
				<path style="fill:#C890CD;" d="M568.546,399.513c3.937-11.023,14.692-14.603,25.434-13.189
					c-7.114,5.765-16.172,15.212-14.161,24.765c0.919,4.367,2.473,7.697,4.385,10.034
					C573.393,419.933,564.097,411.376,568.546,399.513z"/>
				<path style="fill:#C890CD;" d="M570.546,350.513c-9.163,10.572-23.786,9.214-35.825,2.244
					c10.339-12.782,23.306-24.229,33.733-31.046C575.809,329.902,578.063,342.996,570.546,350.513z"/>
				<path style="fill:#C890CD;" d="M626.546,433.513c3.5-2.188,7.001-3.035,10.586-3.213c2.311,4.394,4.253,9.61,5.352,15.753
					l17.751,8.069c0,0-8.875,10.469-25.55,7.655c0,0-10.216,3.22-24.515,1.62C610.116,451.389,616.023,440.529,626.546,433.513z"/>
				<path style="fill:#C890CD;" d="M615.546,349.513c-6.449-10.032-7.763-21.09-7.254-32.072
					c16.372,7.008,39.096,18.255,45.219,36.093c1.754,5.109,3.205,10.846,4.384,16.443
					C641.519,370.877,625.055,363.411,615.546,349.513z"/>
			</g>
			<g>
				<g>
					<g>
						<path style="fill:#082439;" d="M621.778,422.909c0.707,0.917,1.431,1.813,1.993,2.83c0.578,1.045,0.929,2.191,1.488,3.24
							c0.305,0.573,1.202,0.178,1.037-0.437c-0.591-2.195-1.918-5.038-4.017-6.133C621.987,422.257,621.536,422.596,621.778,422.909
							L621.778,422.909z"/>
					</g>
				</g>
				<g>
					<g>
						<path style="fill:#082439;" d="M615.022,421.462c2.376,5.816,5.232,11.421,7.565,17.263c2.34,5.861,4.105,11.907,6.326,17.802
							c0.164,0.434,0.815,0.271,0.705-0.194c-2.768-11.758-7.933-24.697-14.219-35.029
							C615.283,421.113,614.931,421.238,615.022,421.462L615.022,421.462z"/>
					</g>
				</g>
				<g>
					<g>
						<path style="fill:#082439;" d="M614.335,422.295c2.394,8.527,4.366,17.032,6.265,25.678c0.058,0.263,0.513,0.211,0.479-0.065
							c-1.063-8.701-3.32-17.503-6.319-25.731C614.665,421.915,614.258,422.018,614.335,422.295L614.335,422.295z"/>
					</g>
				</g>
				<g>
					<g>
						<path style="fill:#082439;" d="M612.598,423.125c0.279,6.087-0.234,12.222,0.073,18.265c0.011,0.215,0.328,0.275,0.387,0.052
							c1.488-5.66,0.956-12.66-0.036-18.374C612.98,422.828,612.587,422.884,612.598,423.125L612.598,423.125z"/>
					</g>
				</g>
				<g>
					<g>
						<path style="fill:#082439;" d="M658.407,454.233c-7.534,3.134-13.277,4.162-21.333,2.135
							c-0.381-0.096-0.624,0.441-0.271,0.643c6.592,3.758,15.815,1.79,21.817-2.272
							C658.861,454.576,658.714,454.105,658.407,454.233L658.407,454.233z"/>
					</g>
				</g>
				<g>
					<g>
						<path style="fill:#082439;" d="M630.913,421.273c5.532,8.087,8.263,16.706,11.81,25.7c0.103,0.261,0.483,0.166,0.425-0.117
							c-1.855-9.036-6.001-18.719-12.029-25.742C631.023,421.001,630.829,421.149,630.913,421.273L630.913,421.273z"/>
					</g>
				</g>
				<path style="fill:#082439;" d="M619.178,411.476c0.068-0.032,0.126-0.084,0.141-0.18c0.102-0.652-0.136-1.536-0.684-1.955
					c-0.57-0.436-1.369-0.141-1.877,0.25c-0.508,0.392-1.12,1.131-1.008,1.826c0.125,0.775,0.985,0.892,1.628,0.863
					C617.969,412.255,618.94,412.124,619.178,411.476z"/>
				<g>
					<g>
						<path style="fill:#082439;" d="M616.791,410.553c-5.669,1.943-14.303,5.962-12.723,13.463
							c0.081,0.386,0.685,0.295,0.681-0.092c-0.08-7.468,6.168-10.531,12.146-13.122
							C617.037,410.741,616.936,410.504,616.791,410.553L616.791,410.553z"/>
					</g>
				</g>
				<g>
					<g>
						<path style="fill:#082439;" d="M677.184,457.622c-2.107,0.677-3.802,2.979-3.622,5.222c0.035,0.43,0.625,0.426,0.666,0
							c0.187-1.963,1.2-4.044,3.108-4.862C677.54,457.894,677.394,457.555,677.184,457.622L677.184,457.622z"/>
					</g>
				</g>
				<g>
					<g>
						<path style="fill:#082439;" d="M674.299,455.841c-2.361-0.279-4.297,2.521-4.507,4.595c-0.031,0.306,0.466,0.368,0.534,0.072
							c0.413-1.808,1.812-4.268,3.972-4.236C674.584,456.276,674.568,455.872,674.299,455.841L674.299,455.841z"/>
					</g>
				</g>
				<g>
					<g>
						<path style="fill:#082439;" d="M674.042,444.712c0.012,0,0.012-0.019,0-0.019
							C674.029,444.693,674.029,444.712,674.042,444.712L674.042,444.712z"/>
					</g>
				</g>
				<g>
					<g>
						<path style="fill:#082439;" d="M473.501,454.549c1.357-0.509,2.755-0.806,4.198-0.954c1.139-0.117,2.311-0.042,3.43-0.283
							c0.253-0.055,0.161-0.387-0.056-0.414c-2.467-0.307-5.453,0.339-7.705,1.335C473.19,454.311,473.317,454.618,473.501,454.549
							L473.501,454.549z"/>
					</g>
				</g>
				<g>
					<g>
						<path style="fill:#082439;" d="M474.271,456.579c1.175,0.043,2.354-0.378,3.509-0.579c1.312-0.228,2.685-0.248,3.967-0.598
							c0.343-0.094,0.235-0.543-0.078-0.58c-1.251-0.148-2.602,0.128-3.841,0.347c-1.218,0.215-2.598,0.384-3.652,1.061
							C474.019,456.331,474.083,456.572,474.271,456.579L474.271,456.579z"/>
					</g>
				</g>
				<g>
					<g>
						<path style="fill:#082439;" d="M694.182,338.574c-3.158,1.375-4.101,5.96-2.875,8.895c0.174,0.416,0.854,0.256,0.696-0.192
							c-1.194-3.376,0.117-5.96,2.412-8.402C694.573,338.708,694.375,338.49,694.182,338.574L694.182,338.574z"/>
					</g>
				</g>
				<g>
					<g>
						<path style="fill:#082439;" d="M616.595,395.497c-13.041-9.733-19.869-23.456-24.185-38.757
							c-0.114-0.403-0.678-0.227-0.615,0.169c2.406,14.972,12.01,30.453,24.62,38.895
							C616.609,395.935,616.775,395.631,616.595,395.497L616.595,395.497z"/>
					</g>
				</g>
				<g>
					<g>
						<path style="fill:#082439;" d="M551.811,445.027c-9.155-0.163-18.599,0.058-27.662,1.464
							c-0.141,0.022-0.108,0.255,0.034,0.249c9.224-0.444,18.384-1.183,27.628-1.366
							C552.034,445.37,552.034,445.031,551.811,445.027L551.811,445.027z"/>
					</g>
				</g>
			</g>
		</g>
		<g>
			<path style="fill:#FCA49A;" d="M438.796,329.721c-21.631,0.543-23.396,30.039-21.74,45.667
				c1.383,13.058,4.664,26.242-0.497,38.946c-1.846-6.057-1.926-6.095-1.926-6.095l-0.026,0.062
				c-3.767-13.298-11.891-26.337-16.284-33.154c-6.417-9.958-9.294-19.915-9.294-19.915s12.835-8.851,13.941-16.375
				c0.726-4.937-3.503-15.305-6.496-21.851c0,0,0.743-24.84-2.134-25.947c-2.877-1.106-16.161,14.415-16.161,14.415
				c-0.058-0.014-0.116-0.028-0.174-0.042c-6.571-1.567-13.424-1.567-19.995,0l-0.174,0.042c0,0-13.285-15.521-16.161-14.415
				c-2.877,1.106-2.134,25.947-2.134,25.947c-2.994,6.546-7.222,16.913-6.496,21.851c1.106,7.524,13.941,16.375,13.941,16.375h0
				c0,0-2.877,9.958-9.294,19.915c-4.387,6.807-12.493,19.818-16.266,33.096l-0.001-0.003c0,0-9.071,20.316-6.462,33.22
				c2.61,12.904,17.749,22.183,28.737,19.573c5.65-1.342,15.599-5.712,24.329-9.74c8.73,4.028,18.679,8.398,24.329,9.74
				c10.988,2.61,26.128-6.669,28.737-19.573c0.732-3.62,0.545-7.824-0.104-11.999c8.132-8.52,9.684-23.62,8.378-34.753
				c-1.219-10.388-3.576-20.616-3.324-31.138c0.241-10.079,2.769-22.472,13.919-25.224
				C444.746,337.164,443.769,329.596,438.796,329.721z"/>
			<g>
				<path style="fill:#FCA49A;" d="M394.844,335.711c2.794,0.621,5.494,0.682,8.105,0.366c-0.595-5.408-3.964-13.579-6.476-19.071
					c0,0,0.743-24.84-2.134-25.947c-2.877-1.106-16.161,14.415-16.161,14.415c-0.058-0.014-0.116-0.028-0.174-0.042
					c-3.968-0.946-8.039-1.311-12.089-1.114C369.786,318.627,380.196,331.403,394.844,335.711z"/>
				<path style="fill:#FCA49A;" d="M388.531,374.647c2.32,5.412,8.05,7.973,14.265,7.704c-1.667-2.809-3.223-5.265-4.473-7.204
					c-3.145-4.88-5.434-9.752-6.957-13.46C387.707,364.88,385.963,370.153,388.531,374.647z"/>
				<path style="fill:#FCA49A;" d="M341.177,412.53c15.785-8.418,19.994-26.308,9.471-41.04c-1.78-2.967-4.247-5.247-7.177-7.064
					c-1.448,3.219-3.362,6.969-5.78,10.721c-4.387,6.807-12.493,19.818-16.266,33.096l-0.001-0.003c0,0-1.126,2.525-2.469,6.352
					C326.257,416.31,333.923,416.487,341.177,412.53z"/>
				<path style="fill:#FCA49A;" d="M330.654,453.57c-1.052-5.262-3.157-9.471-8.419-12.628c-2.4-1.44-5.019-1.776-7.557-1.326
					c0.073,0.627,0.162,1.245,0.283,1.843c1.599,7.904,7.9,14.442,15.067,17.726C330.689,457.428,331.055,455.576,330.654,453.57z"
					/>
				<path style="fill:#FCA49A;" d="M388.061,459.739c1.597,0.551,3.054,0.998,4.295,1.293c9.197,2.184,21.298-3.963,26.53-13.59
					c-0.297-0.068-0.594-0.136-0.891-0.186C405.811,443.195,393.629,448.932,388.061,459.739z"/>
				<path style="fill:#FCA49A;" d="M438.796,329.721c-8.433,0.212-13.837,4.833-17.205,11.309c3.201,0.752,6.132,2.519,8.434,5.005
					c2.111-3.669,5.258-6.535,9.939-7.69C444.746,337.164,443.769,329.596,438.796,329.721z"/>
				<path style="fill:#FCA49A;" d="M403.718,430.565l7.272,5.802c0,0-5.082,11.123-17.602,5.204c0,0-1.36-6.466,5.502-7.424
					l1.524,0.411C400.413,434.557,402.357,433.682,403.718,430.565z"/>
				<path style="fill:#FCA49A;" d="M337.85,429.726l-7.657,6.641c0,0,5.082,11.123,17.602,5.204c0,0,3.924-6.756-2.938-7.715
					l-4.088,0.701C340.769,434.557,339.211,432.843,337.85,429.726z"/>
				<path style="fill:#FCA49A;" d="M384.852,434.148c-1.279,0.26-4.147,0.477-7.362,1.092c1.456,3.048,2.545,7.424,2.08,10.664
					c2.693-1.249,4.615-2.105,5.274-2.27c2.9-0.725,8.264,0.87,9.859-0.725C396.297,441.314,391.666,432.764,384.852,434.148z"/>
			</g>
			<g>
				<g>
					<g>
						<path style="fill:#082439;" d="M388.988,443.068c-7.193-0.297-14.48,4.044-20.869,7.093
							c-5.989,2.858-11.903,6.045-18.011,8.636c-0.462,0.196-0.132,0.979,0.343,0.814c5.462-1.899,10.631-4.737,15.836-7.228
							c6.802-3.256,15.062-8.402,22.701-8.096C389.773,444.318,389.771,443.1,388.988,443.068L388.988,443.068z"/>
					</g>
				</g>
				<g>
					<g>
						<path style="fill:#082439;" d="M393.735,439.003c0.731,1.405,0.948,3.442-0.883,4.082c-1.201,0.42-2.636,0.118-3.864-0.017
							c-0.778-0.086-0.773,1.135,0,1.219c1.779,0.192,3.941,0.572,5.419-0.717c1.537-1.34,1.212-3.549,0.364-5.173
							C394.414,437.712,393.379,438.318,393.735,439.003L393.735,439.003z"/>
					</g>
				</g>
				<g>
					<g>
						<path style="fill:#082439;" d="M334.52,446.018c9.391-2.153,18.71-4.615,28.089-6.819c4.377-1.028,8.761-2.028,13.154-2.987
							c6.091-1.33,13.759-3.36,17.965,2.795c0.44,0.644,1.498,0.033,1.052-0.615c-5.315-7.74-15.601-4.16-23.073-2.409
							c-12.49,2.927-25.043,5.808-37.336,9.492C334.023,445.58,334.167,446.099,334.52,446.018L334.52,446.018z"/>
					</g>
				</g>
				<g>
					<g>
						<path style="fill:#082439;" d="M401.193,434.779c4.964-4.939,6.752-13.915,5.843-20.685
							c-0.99-7.378-2.483-16.579-7.895-22.113c-0.284-0.29-0.761,0.081-0.559,0.432c6.905,12.033,11.558,29.869,2.167,41.922
							C400.508,434.645,400.898,435.073,401.193,434.779L401.193,434.779z"/>
					</g>
				</g>
				<g>
					<g>
						<path style="fill:#082439;" d="M402.553,434.688c-1.996-0.792-4.413-0.854-6.37,0.039c-1.424,0.65-3.161,1.845-2.507,3.645
							c0.15,0.413,0.883,0.394,0.829-0.112c-0.216-2.028,2.401-3.117,4.078-3.224c1.306-0.083,2.588,0.209,3.881,0.315
							C402.873,435.385,402.878,434.817,402.553,434.688L402.553,434.688z"/>
					</g>
				</g>
				<g>
					<g>
						<path style="fill:#082439;" d="M414.106,407.579c2.135,12.695,0.207,40.571-19.349,34.203
							c-0.451-0.147-0.777,0.587-0.329,0.78c19.619,8.429,23.854-22.745,20.103-35.099
							C414.447,407.186,414.06,407.303,414.106,407.579L414.106,407.579z"/>
					</g>
				</g>
				<g>
					<g>
						<path style="fill:#082439;" d="M342.832,392.011c-5.153,5.987-6.848,14.456-7.933,22.081
							c-0.933,6.553,0.625,16.162,5.822,20.717c0.286,0.251,0.801-0.078,0.56-0.432c-8.36-12.268-5.883-30.003,2.045-41.986
							C343.52,392.097,343.066,391.739,342.832,392.011L342.832,392.011z"/>
					</g>
				</g>
				<g>
					<g>
						<path style="fill:#082439;" d="M327.413,407.462c-3.875,12.804,0.781,43.832,20.764,35.056
							c0.443-0.195,0.128-0.924-0.329-0.78c-3.463,1.091-7.286,1.467-10.765,0.158c-4.628-1.743-6.532-7.056-8.033-11.344
							c-2.659-7.597-2.538-15.135-1.212-22.973C327.884,407.304,327.496,407.185,327.413,407.462L327.413,407.462z"/>
					</g>
				</g>
				<g>
					<g>
						<path style="fill:#082439;" d="M338.835,436.071c2.389-1.445,6.506-3.043,8.766-0.52c1.064,1.188,1.493,3.153,0.763,4.616
							c-0.727,1.456-2.105,1.903-3.524,2.42c-0.404,0.147-0.368,0.788,0.106,0.783c3.764-0.046,5.863-4.275,4.06-7.444
							c-2.184-3.836-7.695-2.751-10.38-0.127C338.484,435.935,338.665,436.173,338.835,436.071L338.835,436.071z"/>
					</g>
				</g>
				<g>
					<g>
						<path style="fill:#082439;" d="M348.338,440.692c0.44-1.379,0.099-2.76-0.879-3.824c-0.905-0.984-2.577-1.957-3.951-1.755
							c-0.172,0.025-0.165,0.264-0.045,0.343c0.995,0.651,2.21,0.764,3.149,1.573c1.012,0.874,1.665,2.233,1.419,3.578
							C347.994,440.807,348.274,440.89,348.338,440.692L348.338,440.692z"/>
					</g>
				</g>
				<g>
					<g>
						<path style="fill:#082439;" d="M346.123,442.095c0.034-1.128-0.294-2.187-1.02-3.059c-0.558-0.67-1.728-1.705-2.672-1.441
							c-0.162,0.045-0.238,0.272-0.103,0.392c0.298,0.266,0.628,0.306,0.991,0.483c0.435,0.212,0.826,0.505,1.16,0.856
							c0.711,0.747,1.158,1.739,1.194,2.769C345.683,442.384,346.114,442.385,346.123,442.095L346.123,442.095z"/>
					</g>
				</g>
				<g>
					<g>
						<path style="fill:#082439;" d="M394.5,439.866c0.159-1.003,0.728-1.808,1.625-2.286c0.954-0.508,1.991-0.351,2.988-0.632
							c0.217-0.061,0.23-0.397,0-0.452c-2.039-0.484-5.298,0.903-4.956,3.37C394.18,440.037,394.473,440.034,394.5,439.866
							L394.5,439.866z"/>
					</g>
				</g>
				<g>
					<g>
						<path style="fill:#082439;" d="M395.196,441.663c1.063-1.381,2.67-1.897,4.352-1.632c0.314,0.049,0.457-0.401,0.134-0.488
							c-1.835-0.496-3.784,0.379-4.802,1.935C394.748,441.68,395.057,441.843,395.196,441.663L395.196,441.663z"/>
					</g>
				</g>
				<g>
					<g>
						<path style="fill:#082439;" d="M387.312,441.404c1.172,1.908,4.633,3.214,6.62,1.757c0.232-0.17,0.201-0.679-0.17-0.629
							c-1.092,0.146-2.03,0.351-3.133,0.086c-1.094-0.263-2.092-0.89-3.009-1.522C387.432,440.966,387.199,441.219,387.312,441.404
							L387.312,441.404z"/>
					</g>
				</g>
				<g>
					<g>
						<path style="fill:#082439;" d="M387.732,438.228c1.587,1.445,3.99,2.594,5.918,1.033c0.332-0.269-0.094-0.788-0.449-0.582
							c-1.818,1.058-3.608,0.328-5.214-0.783C387.79,437.76,387.555,438.067,387.732,438.228L387.732,438.228z"/>
					</g>
				</g>
				<g>
					<g>
						<path style="fill:#082439;" d="M419.101,424.879c3.737,9.896,1.365,18.238-3.848,26.93c-0.185,0.309,0.239,0.629,0.493,0.381
							c7.079-6.894,7.655-18.913,3.852-27.52C419.474,424.391,418.992,424.59,419.101,424.879L419.101,424.879z"/>
					</g>
				</g>
				<g>
					<g>
						<path style="fill:#082439;" d="M422.465,339.399c2.951,0.449,6.444,2.156,7.914,4.887c0.21,0.389,0.887,0.123,0.728-0.307
							c-0.617-1.672-2.193-2.618-3.658-3.499c-1.506-0.905-3.183-1.754-4.984-1.506
							C422.254,339.003,422.256,339.367,422.465,339.399L422.465,339.399z"/>
					</g>
				</g>
				<g>
					<g>
						<path style="fill:#082439;" d="M367.662,335.373c-0.955-0.309-2.126-0.314-2.921,0.401c-0.67,0.603-0.628,1.569,0.061,2.143
							c0.796,0.663,2.263,0.651,3.223,0.486c0.909-0.157,1.797-0.717,1.938-1.696c0.333-2.32-3.206-2.796-4.644-1.793
							c-0.765,0.534-1.128,1.608-0.557,2.417c0.59,0.837,1.772,0.912,2.698,0.799c0.97-0.118,2.215-0.826,1.702-2.005
							c-0.469-1.079-2.213-0.96-3.153-0.832c-0.953,0.13-0.638,1.533,0.215,1.591c0.035,0.003,0.071,0.005,0.107,0.007
							c0.362,0.025,0.744-0.347,0.712-0.712c-0.003-0.035-0.006-0.07-0.009-0.105c-0.27,0.27-0.54,0.54-0.81,0.81
							c0.334,0.014,1.081,0.146,1.363,0.004c0.173,0.057,0.21-0.001,0.112-0.173c0.025-0.173-0.027-0.224-0.156-0.153
							c-0.12-0.045-0.459,0.065-0.602,0.069c-0.146,0.005-0.582,0.058-0.704-0.062c-0.282-0.277,0.011-0.474,0.263-0.554
							c0.402-0.127,0.991-0.122,1.399-0.049c0.643,0.115,0.954,0.604,0.267,1.015c-0.383,0.23-0.983,0.175-1.413,0.152
							c-0.235-0.013-0.56-0.003-0.776-0.095c-0.422-0.178-0.417-0.286-0.098-0.496c0.43-0.283,1.171-0.318,1.66-0.287
							C368.068,336.291,368.127,335.524,367.662,335.373L367.662,335.373z"/>
					</g>
				</g>
				<g>
					<g>
						<path style="fill:#082439;" d="M379.599,334.531c1.564-1.128,3.126-2.252,4.798-3.218c1.667-0.963,3.553-1.553,5.171-2.572
							c0.303-0.191,0.094-0.598-0.231-0.548c-3.621,0.555-7.521,3.367-10.113,5.853C378.977,334.282,379.309,334.74,379.599,334.531
							L379.599,334.531z"/>
					</g>
				</g>
				<g>
					<g>
						<path style="fill:#082439;" d="M356.395,334.045c-2.591-2.484-6.492-5.298-10.113-5.853c-0.323-0.049-0.537,0.356-0.231,0.548
							c1.618,1.019,3.504,1.609,5.171,2.572c1.672,0.966,3.234,2.09,4.798,3.218C356.308,334.738,356.645,334.284,356.395,334.045
							L356.395,334.045z"/>
					</g>
				</g>
				<g>
					<g>
						<path style="fill:#082439;" d="M366.764,337.555c0.101,1.268,0.286,2.458,1.425,3.203c1.254,0.82,2.903,0.965,4.29,0.447
							c0.32-0.12,0.193-0.558-0.139-0.506c-1.229,0.19-2.558,0.198-3.662-0.461c-1.062-0.634-1.122-1.678-1.443-2.746
							C367.159,337.244,366.742,337.276,366.764,337.555L366.764,337.555z"/>
					</g>
				</g>
				<g>
					<g>
						<path style="fill:#082439;" d="M366.773,337.491c-0.322,1.068-0.382,2.112-1.443,2.746c-1.104,0.659-2.433,0.651-3.662,0.461
							c-0.332-0.051-0.46,0.386-0.139,0.506c1.387,0.518,3.036,0.373,4.29-0.447c1.14-0.745,1.324-1.932,1.425-3.203
							C367.264,337.279,366.848,337.241,366.773,337.491L366.773,337.491z"/>
					</g>
				</g>
				<g>
					<g>
						<path style="fill:#082439;" d="M380.127,339.347c10.365-2.247,20.704-3.95,31.284-4.794c0.56-0.045,0.568-0.921,0-0.881
							c-10.586,0.736-21.167,2.426-31.369,5.367C379.845,339.097,379.927,339.39,380.127,339.347L380.127,339.347z"/>
					</g>
				</g>
				<g>
					<g>
						<path style="fill:#082439;" d="M381.403,341.774c9.486-0.348,18.944-0.116,28.387,0.866c0.509,0.053,0.506-0.745,0-0.797
							c-9.462-0.974-18.893-1.231-28.387-0.604C381.063,341.262,381.057,341.787,381.403,341.774L381.403,341.774z"/>
					</g>
				</g>
				<g>
					<g>
						<path style="fill:#082439;" d="M384.076,344.774c7.94,0.251,15.635,1.398,23.361,3.205c0.545,0.128,0.774-0.689,0.232-0.841
							c-7.676-2.15-15.632-3.105-23.592-3.105C383.599,344.033,383.6,344.759,384.076,344.774L384.076,344.774z"/>
					</g>
				</g>
				<g>
					<g>
						<path style="fill:#082439;" d="M352.268,339.04c-10.202-2.941-20.783-4.631-31.369-5.367c-0.567-0.039-0.561,0.836,0,0.881
							c10.58,0.844,20.919,2.547,31.284,4.794C352.383,339.39,352.467,339.097,352.268,339.04L352.268,339.04z"/>
					</g>
				</g>
				<g>
					<g>
						<path style="fill:#082439;" d="M350.908,341.24c-9.494-0.627-18.925-0.37-28.387,0.604c-0.505,0.052-0.51,0.85,0,0.797
							c9.443-0.982,18.901-1.215,28.387-0.866C351.254,341.787,351.249,341.262,350.908,341.24L350.908,341.24z"/>
					</g>
				</g>
				<g>
					<g>
						<path style="fill:#082439;" d="M348.235,344.033c-7.96,0-15.917,0.955-23.592,3.105c-0.542,0.152-0.314,0.968,0.232,0.841
							c7.726-1.806,15.422-2.954,23.361-3.205C348.71,344.759,348.713,344.033,348.235,344.033L348.235,344.033z"/>
					</g>
				</g>
				<g>
					<g>
						<path style="fill:#082439;" d="M390.449,296.886c-3.267,4.472-5.857,13.298-2.067,18.166c0.23,0.295,0.624-0.081,0.486-0.375
							c-2.706-5.776-0.915-12.24,1.978-17.559C390.99,296.853,390.62,296.651,390.449,296.886L390.449,296.886z"/>
					</g>
				</g>
				<g>
					<g>
						<path style="fill:#082439;" d="M344.743,297.705c3.294,4.61,4.682,10.385,2.081,15.723c-0.167,0.343,0.279,0.588,0.502,0.293
							c3.67-4.841,1.266-12.183-2.192-16.317C344.954,297.19,344.579,297.475,344.743,297.705L344.743,297.705z"/>
					</g>
				</g>
				<g>
					<g>
						<path style="fill:#082439;" d="M362.93,346.157c2.206,1.302,6.013,1.845,8.032-0.14c0.126-0.124-0.003-0.331-0.169-0.29
							c-1.267,0.319-2.267,0.897-3.611,0.962c-1.41,0.068-2.81-0.225-4.092-0.808C362.908,345.798,362.75,346.05,362.93,346.157
							L362.93,346.157z"/>
					</g>
				</g>
			</g>
		</g>
	</g>
	<g>
		<path style="fill:#F0E3DA;" d="M326.364,318.44c-10.91,2.273-12.752,4.115-15.025,15.025c-2.273-10.91-4.115-12.752-15.025-15.025
			c10.91-2.273,12.752-4.115,15.025-15.025C313.612,314.325,315.455,316.168,326.364,318.44z"/>
		<path style="fill:#F0E3DA;" d="M55.916,307.039c-10.91,2.273-12.752,4.115-15.025,15.025c-2.273-10.91-4.115-12.752-15.025-15.025
			c10.91-2.273,12.752-4.115,15.025-15.025C43.164,302.924,45.006,304.767,55.916,307.039z"/>
		<path style="fill:#F0E3DA;" d="M34.548,291.003c-6.303,1.313-7.368,2.378-8.681,8.681c-1.313-6.303-2.378-7.368-8.681-8.681
			c6.303-1.313,7.368-2.378,8.681-8.681C27.18,288.625,28.244,289.689,34.548,291.003z"/>
		<path style="fill:#F0E3DA;" d="M197.424,377.227c-10.91,2.273-12.752,4.115-15.025,15.025
			c-2.273-10.91-4.115-12.752-15.025-15.025c10.91-2.273,12.752-4.115,15.025-15.025
			C184.672,373.112,186.514,374.954,197.424,377.227z"/>
		<path style="fill:#F0E3DA;" d="M201.941,388.177c-5.447,1.135-6.367,2.055-7.502,7.502c-1.135-5.448-2.055-6.368-7.502-7.502
			c5.447-1.135,6.367-2.055,7.502-7.502C195.573,386.122,196.493,387.042,201.941,388.177z"/>
		<path style="fill:#F0E3DA;" d="M700.114,392.233c-10.91,2.273-12.752,4.115-15.025,15.025
			c-2.273-10.91-4.115-12.752-15.025-15.025c10.91-2.273,12.752-4.115,15.025-15.025
			C687.362,388.118,689.204,389.96,700.114,392.233z"/>
		<path style="fill:#F0E3DA;" d="M679.392,379.238c-5.235,1.091-6.119,1.975-7.21,7.21c-1.091-5.235-1.975-6.119-7.21-7.21
			c5.235-1.09,6.119-1.975,7.21-7.21C673.273,377.264,674.157,378.148,679.392,379.238z"/>
		<path style="fill:#F0E3DA;" d="M331.276,302.707c-6.191,1.29-7.237,2.335-8.527,8.527c-1.29-6.191-2.335-7.237-8.527-8.527
			c6.191-1.29,7.237-2.335,8.527-8.526C324.039,300.372,325.085,301.418,331.276,302.707z"/>
		<path style="fill:#F0E3DA;" d="M443.011,434.265c-6.191,1.29-7.237,2.335-8.527,8.527c-1.29-6.191-2.335-7.237-8.527-8.527
			c6.191-1.29,7.237-2.335,8.527-8.527C435.775,431.929,436.82,432.975,443.011,434.265z"/>
		<path style="fill:#F0E3DA;" d="M112.563,449.695c-6.191,1.29-7.237,2.335-8.527,8.527c-1.29-6.191-2.335-7.237-8.527-8.527
			c6.191-1.29,7.237-2.335,8.527-8.527C105.326,447.359,106.371,448.405,112.563,449.695z"/>
		<path style="fill:#F0E3DA;" d="M610.748,275.02c-6.191,1.29-7.237,2.335-8.527,8.527c-1.29-6.191-2.335-7.237-8.526-8.527
			c6.191-1.29,7.237-2.335,8.526-8.527C603.511,272.685,604.557,273.73,610.748,275.02z"/>
		<path style="fill:#F0E3DA;" d="M614.266,262.707c-4.41,0.919-5.155,1.663-6.073,6.073c-0.919-4.41-1.663-5.155-6.073-6.073
			c4.41-0.919,5.155-1.663,6.073-6.073C609.111,261.043,609.856,261.788,614.266,262.707z"/>
	</g>
	<g>
		<g>
			<path style="fill:#C890CD;" d="M610.777,40.802c-2.375,0.062-4.629,0.048-6.974-0.409c-1.188-0.231-2.353-0.57-3.528-0.849
				C569.07,17.453,528.627,16.218,492.16,22.67c-22.089,3.908-43.559,10.651-65.095,16.792c-21.955,6.26-44.823,12.86-67.769,13.761
				c-8.303,0.326-16.983-0.669-24.171-4.679c9.301-4.293,16.85-11.475,16.423-22.942c-0.503-13.527-14.469-19.652-24.955-11.205
				c-11.899,9.585-6.853,25.472,3.561,33.792c-9.657,3.339-20.309,4.381-30.377,5.435c-11.523,1.207-23.108,1.759-34.691,1.877
				c-23.955,0.244-47.877-1.387-71.767-2.943c-23.279-1.516-46.667-3.184-70.009-2.641c-19.627,0.456-39.636,3.384-56.45,14.189
				c-28.748,18.474-43.772,53.547-47.946,86.394c-0.659,5.189-0.966,10.715-0.167,15.993c-4.725,1.934-9.254,4.353-13.505,7.173
				c-1.793,1.189-3.536,2.451-5.231,3.774v2.516c5.767-4.751,12.164-8.676,19.095-11.488c0.715,3.417,1.945,6.698,3.911,9.674
				c3.866,5.853,10.377,10.484,17.629,10.253c12.025-0.383,20.21-17.975,8.135-24.64c-6.444-3.557-14.697-1.983-21.427-0.175
				c-2.209,0.593-4.384,1.306-6.526,2.108c-1.112-7.731,0.288-16.067,1.687-23.429c1.648-8.671,4.008-17.211,7.134-25.467
				c6.304-16.646,15.914-32.421,29.495-44.117c16.3-14.038,36.836-19.193,57.932-20.273c46.092-2.358,92.262,4.91,138.34,5.359
				c22.101,0.215,44.644-0.623,66.372-4.992c3.457-0.695,7.057-1.684,10.51-3.027c16.045,10.542,38.94,5.408,56.398,1.919
				c22.07-4.411,43.547-11.241,65.197-17.297c38.63-10.805,80.872-19.27,119.982-5.671c8.819,3.067,17.087,7.34,24.718,12.691
				c0.61,0.588,1.378,1.095,1.87,1.748c0.981,1.304,1.5,2.88,1.779,4.474c0.066,0.377,0.603,0.252,0.63-0.085
				c0.144-1.819-0.397-3.543-1.421-5.057c-0.031-0.047-0.069-0.099-0.103-0.147c0.099-0.092,0.187-0.2,0.257-0.322
				c0.994,0.325,1.974,0.687,2.927,1.28c1.549,0.963,2.936,2.256,4.587,3.032c0.464,0.218,0.941-0.328,0.562-0.729
				c-1.405-1.49-3.301-2.651-5.131-3.602c2.197,0.27,4.415,0.174,6.319-0.494C611.221,41.358,611.188,40.792,610.777,40.802z
				 M34.694,164.218c4.445-0.641,9.602-0.779,13.552,1.712c5.494,3.466,5.31,10.16,1.811,14.958
				c-7.389,10.131-20.683,3.877-25.86-5.077c-1.481-2.561-2.44-5.31-3.024-8.161C25.495,166.059,30.01,164.893,34.694,164.218z
				 M328.018,42.957c-7.354-8.051-8.657-20.616,1.042-27.431c9.351-6.571,19.994-0.371,20.126,10.679
				c0.124,10.293-7.455,17.272-16.312,20.961C331.136,45.979,329.507,44.586,328.018,42.957z"/>
			<path style="fill:#C890CD;" d="M0.012,330.099v3.752c8.895,11.188,17.377,22.377,20.919,37.001
				c5.159,21.3,1.027,43.591-4.929,64.264c-2.874,9.976-6.249,19.788-9.819,29.533c-0.3,0.82,0.995,1.161,1.302,0.359
				c13.431-35.132,28.237-77.826,8.221-113.479C11.356,343.782,5.641,336.939,0.012,330.099z"/>
			<g>
				<defs>
					<rect id="SVGID_1_" y="426.796" width="73.204" height="73.204"/>
				</defs>
				<clipPath id="SVGID_00000142871165263274560340000014476455902750938245_">
					<use xlink:href="#SVGID_1_"  style="overflow:visible;"/>
				</clipPath>
				<g style="clip-path:url(#SVGID_00000142871165263274560340000014476455902750938245_);">
					
						<ellipse transform="matrix(0.7071 -0.7071 0.7071 0.7071 -339.689 147.1217)" style="fill:#C890CD;" cx="7.747" cy="483.602" rx="34.244" ry="34.244"/>
					<g>
						<g>
							<path style="fill:#082439;" d="M20.136,451.752c-18.581,11.81-33.176,30.049-40.785,50.707
								c-0.2,0.543,0.652,0.761,0.859,0.237c8.197-20.735,21.848-37.825,40.158-50.547
								C20.607,451.982,20.388,451.591,20.136,451.752L20.136,451.752z"/>
						</g>
					</g>
					<g>
						<g>
							<path style="fill:#082439;" d="M15.427,449.852c-9.287,4.905-17.452,11.575-24.084,19.732
								c-6.381,7.848-13.157,17.967-15.847,27.812c-0.155,0.566,0.706,0.8,0.877,0.242c3.104-10.126,9.888-20.572,16.577-28.704
								c6.295-7.653,14.096-13.832,22.704-18.694C15.907,450.098,15.683,449.717,15.427,449.852L15.427,449.852z"/>
						</g>
					</g>
					<g>
						<g>
							<path style="fill:#082439;" d="M-26.155,486.095c7.818-14.994,18.153-27.329,33.049-35.716
								c0.484-0.272,0.049-1.018-0.435-0.745c-14.317,8.085-26.907,20.832-32.965,36.312
								C-26.586,486.15-26.255,486.286-26.155,486.095L-26.155,486.095z"/>
						</g>
					</g>
					<g>
						<g>
							<path style="fill:#082439;" d="M-13.671,488.7c13.325,10.791,32.282,15.51,49.082,16.485c0.56,0.033,0.545-0.811,0-0.863
								c-8.705-0.823-17.218-2.152-25.553-4.864c-8.347-2.716-15.628-6.844-23.125-11.281
								C-13.583,487.991-13.972,488.456-13.671,488.7L-13.671,488.7z"/>
						</g>
					</g>
					<g>
						<g>
							<path style="fill:#082439;" d="M-15.69,493.322c12.38,10.139,28.993,15.741,44.78,17.122c0.585,0.051,0.575-0.851,0-0.909
								c-16.546-1.69-30.568-7.744-44.434-16.661C-15.612,492.7-15.944,493.113-15.69,493.322L-15.69,493.322z"/>
						</g>
					</g>
					<g>
						<g>
							<path style="fill:#082439;" d="M-17.714,498.029c5.056,5.332,12.346,9.049,18.986,11.971
								c6.732,2.962,13.685,4.664,21.058,4.493c0.584-0.013,0.587-0.921,0-0.909c-14.392,0.278-28.73-6.985-39.68-15.919
								C-17.602,497.458-17.947,497.783-17.714,498.029L-17.714,498.029z"/>
						</g>
					</g>
					<g>
						<g>
							<path style="fill:#082439;" d="M-19.74,502.619c8.176,8.691,20.123,14.148,31.968,15.131
								c0.421,0.035,0.525-0.681,0.101-0.746c-12.244-1.855-22.308-6.714-31.697-14.756C-19.624,502.03-19.975,502.37-19.74,502.619
								L-19.74,502.619z"/>
						</g>
					</g>
					<g>
						<g>
							<path style="fill:#082439;" d="M-24.73,473.595c6.601-8.992,13.795-16.538,23.342-22.441
								c0.374-0.231,0.035-0.817-0.345-0.591c-9.298,5.52-17.938,13.384-23.28,22.867C-25.119,473.618-24.852,473.762-24.73,473.595
								L-24.73,473.595z"/>
						</g>
					</g>
					<g>
						<g>
							<path style="fill:#082439;" d="M8.744,461.741c7.32,12.387,8.6,26.009,8.915,40.116c0.013,0.572,0.899,0.575,0.891,0
								c-0.206-13.87-1.293-28.589-9.36-40.376C9.004,461.21,8.573,461.451,8.744,461.741L8.744,461.741z"/>
						</g>
					</g>
					<g>
						<g>
							<path style="fill:#082439;" d="M12.892,457.505c9.709,13.359,10.132,29.703,10.771,45.551c0.021,0.528,0.823,0.534,0.825,0
								c0.039-8.768-0.258-17.716-2.268-26.288c-1.523-6.497-3.983-14.847-9.026-19.495
								C13.042,457.132,12.758,457.32,12.892,457.505L12.892,457.505z"/>
						</g>
					</g>
					<g>
						<g>
							<path style="fill:#082439;" d="M17.601,454.013c4.303,7.234,8.365,13.722,10.475,22.03c2.331,9.18,2.454,18.419,2.676,27.814
								c0.01,0.424,0.635,0.421,0.656,0c0.886-17.72-2.372-35.895-13.439-50.128C17.804,453.516,17.468,453.789,17.601,454.013
								L17.601,454.013z"/>
						</g>
					</g>
					<g>
						<g>
							<path style="fill:#082439;" d="M23.087,453.286c6.158,6.058,8.766,15.202,10.537,23.446c1.871,8.709,2.35,17.452,1.973,26.33
								c-0.017,0.411,0.618,0.409,0.637,0c0.457-9.446,0.019-19.054-2.163-28.283c-1.852-7.833-4.569-16.249-10.654-21.824
								C23.197,452.751,22.871,453.073,23.087,453.286L23.087,453.286z"/>
						</g>
					</g>
					<g>
						<g>
							<path style="fill:#082439;" d="M32.925,461.139c2.112,4.887,4.239,9.766,5.394,14.985c1.372,6.196,1.063,12.28,1.221,18.562
								c0.006,0.251,0.423,0.334,0.46,0.062c1.633-11.766-1.293-23.427-6.671-33.846C33.189,460.629,32.809,460.87,32.925,461.139
								L32.925,461.139z"/>
						</g>
					</g>
					<g>
						<g>
							<path style="fill:#082439;" d="M11.214,500.348c0.992-0.956,1.995-1.875,2.948-2.874c0.95-0.996,1.889-1.858,3.198-2.345
								c0.493-0.183,0.282-0.979-0.219-0.796c-2.735,0.999-4.415,3.579-6.224,5.716C10.742,500.254,11.015,500.539,11.214,500.348
								L11.214,500.348z"/>
						</g>
					</g>
					<g>
						<g>
							<path style="fill:#082439;" d="M5.337,498.13c2.816-4.312,6.268-7.539,11.17-9.31c0.408-0.148,0.245-0.791-0.182-0.66
								c-4.896,1.5-9.365,5.019-11.382,9.804C4.844,498.198,5.21,498.324,5.337,498.13L5.337,498.13z"/>
						</g>
					</g>
					<g>
						<g>
							<path style="fill:#082439;" d="M-0.656,495.759c1.981-2.922,4.177-5.756,6.732-8.203c2.951-2.826,6.458-4.106,10.283-5.331
								c0.372-0.119,0.221-0.681-0.162-0.588c-8.016,1.958-13.312,6.671-17.185,13.928C-1.105,495.785-0.794,495.963-0.656,495.759
								L-0.656,495.759z"/>
						</g>
					</g>
					<g>
						<g>
							<path style="fill:#082439;" d="M-5.577,492.643c4.559-8.322,11.349-14.052,20.676-16.299
								c0.388-0.093,0.217-0.651-0.162-0.588c-9.197,1.537-17.617,7.881-21.002,16.681C-6.175,492.722-5.721,492.905-5.577,492.643
								L-5.577,492.643z"/>
						</g>
					</g>
					<g>
						<g>
							<path style="fill:#082439;" d="M-10.422,489.678c4.457-9.301,13.352-17.375,23.288-20.216
								c0.463-0.133,0.268-0.849-0.199-0.723c-9.984,2.679-19.888,10.892-23.491,20.77C-10.91,489.741-10.53,489.904-10.422,489.678
								L-10.422,489.678z"/>
						</g>
					</g>
				</g>
			</g>
		</g>
		<g>
			<path style="fill:#FCA49A;" d="M738.336,397.702c-3.766-27.404-11.692-54.329-22.789-79.643
				c-11.601-26.461-26.874-50.864-25.819-80.82c0.261-7.408,1.189-14.775,2.3-22.098c1.048-6.912,2.079-14.108,5.265-20.424
				c0.659-1.307,1.451-2.589,2.349-3.808c2.394,6.411,6.535,11.857,13.922,13.29c9.049,1.755,17.794-5.129,14.262-14.693
				c-3.95-10.695-16.519-11.486-24.797-5.404c-0.945,0.694-1.815,1.445-2.625,2.238c-0.837-3.418-1.266-6.965-1.652-10.27
				c-1.93-16.522-3.055-33.17-3.429-49.799c-0.762-33.85,2.039-67.592,9.165-100.71c0.166-0.771-1-1.102-1.188-0.327
				c-8.06,33.314-10.814,67.785-10.049,101.997c0.387,17.291,1.424,34.707,3.66,51.864c0.383,2.938,0.943,6.05,1.818,9.052
				c-7.251,8.627-8.486,21.485-9.947,32.251c-2.189,16.13-2.44,32.101,2.199,47.837c4.502,15.272,12.148,29.347,18.848,43.714
				c7.341,15.742,13.349,32.083,17.954,48.831c8.013,29.145,18.261,68.12-6.522,91.966c-24.168,23.254-59.972,20.651-89.228,9.896
				c-16.111-5.923-31.208-14.185-46.457-21.983c-14.462-7.396-29.535-15.253-45.536-18.677c-4.318-0.924-9.377-1.639-14.362-1.508
				c-6.08-10.447-20.008-15.954-30.936-18.993c-7.153-1.989-14.478-2.933-21.894-3.014c-0.315-0.004-0.569,0.086-0.765,0.233
				c-1.655-0.783-3.181-1.85-4.615-2.973c-0.379-0.297-0.819,0.146-0.525,0.525c0.953,1.231,2.341,2.422,3.914,3.347
				c-1.619,0.428-3.156,1.129-4.418,1.994c-0.428,0.293-0.062,0.889,0.4,0.685c1.632-0.72,3.415-1.286,5.202-1.526
				c0.201,0.174,0.467,0.29,0.806,0.296c0.213,0.004,0.428,0.016,0.641,0.021c-1.919,0.844-3.67,2.064-5.109,3.699
				c-0.397,0.451,0.203,1.045,0.656,0.656c2.656-2.275,5.679-3.725,9.033-4.128c12.602,0.953,25.272,4.541,35.903,11.405
				c3.298,2.129,6.398,4.774,8.604,7.974c-6.382,0.667-12.351,2.989-16.12,8.382c-5.614,8.035,1.431,16.976,10.466,16.108
				c10.662-1.025,13.669-13.421,10.088-22.023c2.144,0.003,4.293,0.165,6.396,0.413c14.941,1.757,29.184,8.642,42.523,15.21
				c42.208,20.784,98.126,54.885,142.695,19.998c7.86-6.153,14.144-14.222,17.583-23.635
				C740.572,423.177,740.041,410.107,738.336,397.702z M714.063,182.397c7.346-0.191,15.622,8.268,11.17,15.646
				c-4.108,6.807-14.452,4.505-19.095-0.29c-2.376-2.454-3.919-5.48-4.975-8.725C704.5,185.285,708.97,182.53,714.063,182.397z
				 M513.7,442.328c-9.358-1.767-7.131-11.598-0.777-15.641c3.4-2.163,7.227-3.141,11.154-3.442
				c0.846,1.736,1.436,3.608,1.662,5.632C526.56,436.209,521.869,443.871,513.7,442.328z"/>
			<g>
				<defs>
					<rect id="SVGID_00000030451906186514387590000008173800554855001484_" x="666.865" width="73.204" height="73.204"/>
				</defs>
				<clipPath id="SVGID_00000181776054255276310850000015779488300473787285_">
					<use xlink:href="#SVGID_00000030451906186514387590000008173800554855001484_"  style="overflow:visible;"/>
				</clipPath>
				<g style="clip-path:url(#SVGID_00000181776054255276310850000015779488300473787285_);">
					<circle style="fill:#FCA49A;" cx="702.248" cy="18.877" r="34.244"/>
					<g>
						<g>
							<path style="fill:#082439;" d="M714.636-12.973c-18.581,11.81-33.176,30.049-40.785,50.707
								c-0.2,0.543,0.651,0.761,0.859,0.237c8.198-20.735,21.848-37.825,40.158-50.547
								C715.108-12.743,714.889-13.133,714.636-12.973L714.636-12.973z"/>
						</g>
					</g>
					<g>
						<g>
							<path style="fill:#082439;" d="M709.927-14.873c-9.287,4.906-17.452,11.575-24.084,19.732
								c-6.381,7.848-13.157,17.967-15.847,27.812c-0.155,0.566,0.706,0.8,0.877,0.242c3.104-10.126,9.888-20.572,16.577-28.704
								c6.295-7.653,14.096-13.832,22.704-18.694C710.408-14.627,710.183-15.007,709.927-14.873L709.927-14.873z"/>
						</g>
					</g>
					<g>
						<g>
							<path style="fill:#082439;" d="M668.345,21.37c7.818-14.994,18.153-27.329,33.049-35.716
								c0.484-0.272,0.049-1.018-0.435-0.745c-14.317,8.085-26.908,20.832-32.965,36.312
								C667.914,21.425,668.245,21.562,668.345,21.37L668.345,21.37z"/>
						</g>
					</g>
					<g>
						<g>
							<path style="fill:#082439;" d="M680.829,23.975c13.325,10.791,32.282,15.51,49.082,16.485c0.56,0.032,0.545-0.811,0-0.863
								c-8.705-0.823-17.218-2.152-25.553-4.864c-8.346-2.716-15.628-6.844-23.125-11.281
								C680.917,23.266,680.528,23.732,680.829,23.975L680.829,23.975z"/>
						</g>
					</g>
					<g>
						<g>
							<path style="fill:#082439;" d="M678.81,28.597c12.38,10.139,28.993,15.741,44.78,17.122c0.586,0.051,0.575-0.851,0-0.909
								c-16.546-1.69-30.568-7.744-44.434-16.662C678.888,27.975,678.556,28.389,678.81,28.597L678.81,28.597z"/>
						</g>
					</g>
					<g>
						<g>
							<path style="fill:#082439;" d="M676.787,33.304c5.056,5.332,12.346,9.049,18.986,11.971
								c6.733,2.962,13.685,4.664,21.058,4.493c0.584-0.014,0.587-0.921,0-0.909c-14.392,0.278-28.73-6.985-39.68-15.919
								C676.899,32.733,676.554,33.058,676.787,33.304L676.787,33.304z"/>
						</g>
					</g>
					<g>
						<g>
							<path style="fill:#082439;" d="M674.76,37.895c8.176,8.691,20.123,14.147,31.968,15.131c0.421,0.035,0.525-0.681,0.101-0.746
								c-12.244-1.855-22.308-6.714-31.698-14.756C674.877,37.305,674.526,37.645,674.76,37.895L674.76,37.895z"/>
						</g>
					</g>
					<g>
						<g>
							<path style="fill:#082439;" d="M669.771,8.871c6.601-8.992,13.795-16.538,23.342-22.441c0.374-0.231,0.035-0.817-0.345-0.591
								c-9.299,5.52-17.938,13.385-23.28,22.867C669.382,8.893,669.648,9.037,669.771,8.871L669.771,8.871z"/>
						</g>
					</g>
					<g>
						<g>
							<path style="fill:#082439;" d="M703.244-2.984c7.32,12.387,8.6,26.009,8.915,40.116c0.013,0.572,0.899,0.575,0.891,0
								c-0.206-13.87-1.293-28.589-9.361-40.376C703.504-3.515,703.073-3.274,703.244-2.984L703.244-2.984z"/>
						</g>
					</g>
					<g>
						<g>
							<path style="fill:#082439;" d="M707.392-7.22c9.709,13.359,10.132,29.703,10.771,45.551c0.021,0.528,0.823,0.534,0.825,0
								c0.039-8.768-0.258-17.716-2.268-26.289c-1.523-6.497-3.984-14.847-9.026-19.495C707.542-7.593,707.258-7.404,707.392-7.22
								L707.392-7.22z"/>
						</g>
					</g>
					<g>
						<g>
							<path style="fill:#082439;" d="M712.101-10.712c4.303,7.234,8.365,13.722,10.475,22.03c2.331,9.18,2.454,18.419,2.676,27.814
								c0.01,0.424,0.635,0.421,0.656,0c0.886-17.72-2.372-35.895-13.439-50.128C712.304-11.209,711.968-10.936,712.101-10.712
								L712.101-10.712z"/>
						</g>
					</g>
					<g>
						<g>
							<path style="fill:#082439;" d="M717.587-11.439c6.158,6.058,8.766,15.202,10.537,23.446c1.871,8.709,2.35,17.452,1.974,26.33
								c-0.018,0.411,0.618,0.409,0.638,0c0.457-9.446,0.018-19.054-2.163-28.283c-1.852-7.833-4.569-16.249-10.654-21.824
								C717.697-11.974,717.371-11.652,717.587-11.439L717.587-11.439z"/>
						</g>
					</g>
					<g>
						<g>
							<path style="fill:#082439;" d="M727.426-3.586c2.112,4.887,4.239,9.767,5.394,14.985c1.372,6.196,1.062,12.28,1.221,18.562
								c0.006,0.251,0.423,0.334,0.46,0.062c1.633-11.766-1.293-23.427-6.671-33.846C727.689-4.096,727.309-3.855,727.426-3.586
								L727.426-3.586z"/>
						</g>
					</g>
					<g>
						<g>
							<path style="fill:#082439;" d="M705.714,35.623c0.992-0.956,1.995-1.875,2.948-2.874c0.95-0.995,1.889-1.858,3.198-2.345
								c0.492-0.183,0.282-0.979-0.219-0.795c-2.735,0.999-4.415,3.579-6.224,5.716C705.242,35.53,705.516,35.815,705.714,35.623
								L705.714,35.623z"/>
						</g>
					</g>
					<g>
						<g>
							<path style="fill:#082439;" d="M699.837,33.405c2.816-4.312,6.268-7.539,11.17-9.31c0.408-0.148,0.245-0.791-0.182-0.66
								c-4.896,1.5-9.365,5.019-11.382,9.804C699.344,33.474,699.71,33.599,699.837,33.405L699.837,33.405z"/>
						</g>
					</g>
					<g>
						<g>
							<path style="fill:#082439;" d="M693.844,31.035c1.981-2.922,4.177-5.756,6.732-8.203c2.951-2.826,6.458-4.106,10.283-5.331
								c0.372-0.119,0.221-0.681-0.162-0.588c-8.016,1.958-13.312,6.671-17.185,13.928
								C693.395,31.061,693.706,31.238,693.844,31.035L693.844,31.035z"/>
						</g>
					</g>
					<g>
						<g>
							<path style="fill:#082439;" d="M688.923,27.919c4.559-8.321,11.349-14.052,20.676-16.299
								c0.388-0.093,0.217-0.651-0.162-0.588c-9.197,1.537-17.617,7.881-21.002,16.681C688.325,27.997,688.78,28.181,688.923,27.919
								L688.923,27.919z"/>
						</g>
					</g>
					<g>
						<g>
							<path style="fill:#082439;" d="M684.078,24.954c4.457-9.301,13.352-17.375,23.288-20.216
								c0.463-0.132,0.268-0.849-0.199-0.723c-9.984,2.679-19.888,10.892-23.491,20.77C683.591,25.017,683.97,25.179,684.078,24.954
								L684.078,24.954z"/>
						</g>
					</g>
				</g>
			</g>
		</g>
	</g>
</g>
</svg>
