<!DOCTYPE svg PUBLIC "-//W3C//DTD SVG 1.1//EN" "http://www.w3.org/Graphics/SVG/1.1/DTD/svg11.dtd">
<!-- Uploaded to: SVG Repo, www.svgrepo.com, Transformed by: SVG Repo Mixer Tools -->
<svg fill="#d28ed7" version="1.1" id="Capa_1" xmlns="http://www.w3.org/2000/svg" xmlns:xlink="http://www.w3.org/1999/xlink" width="800px" height="800px" viewBox="0 0 184.055 184.055" xml:space="preserve" stroke="#d28ed7">
<g id="SVGRepo_bgCarrier" stroke-width="0"/>
<g id="SVGRepo_tracerCarrier" stroke-linecap="round" stroke-linejoin="round"/>
<g id="SVGRepo_iconCarrier"> <g> <g> <polygon points="126.869,114.741 126.869,114.743 126.874,114.74 "/> <path d="M156.867,121.556c-5.694-0.067-11.375-0.288-17.056-0.533c-0.061-2.481-0.902-5.103-1.896-6.946 c-1.629-3.018-4.63-5.362-7.925-6.266c-3.351-0.918-6.571,0.186-8.569,3.004c-1.831,2.581-1.356,6.531-0.02,9.485 c-5.564-0.176-11.134-0.29-16.716-0.18c-1.72,0.034-3.026,1.377-3.081,3.081c-0.248,7.825-0.592,16.183,0.81,23.917 c0.063,0.354,0.289,1.157,0.619,2.021c-1.258-0.525-2.641-0.855-4.129-0.979c1.062-12.154-4.087-23.667-13.362-31.072 c-0.658-0.709-1.407-1.36-2.104-2.045c0.052-0.167,0.096-0.34,0.088-0.538c-0.131-3.399,0.23-6.758,0.316-10.139 c11.481-0.871,20.045-12.236,16.376-23.663c3.3-4.654,4.721-10.3,2.039-15.604c-4.03-7.974-11.357-8.757-18.508-6.648 c-4.258,0.292-8.546,2.035-11.779,4.793c-1.677-1.729-3.486-3.296-5.437-4.608c-0.151-0.106-0.305-0.208-0.457-0.312 c-0.335-0.216-0.667-0.436-1.011-0.637c-6.754-4.088-15.421-5.027-21.99,0.069c-8.13,6.306-8.017,17.646-4.103,26.604 c0.688,4.013,2.432,7.778,5.576,10.817c2.763,2.671,6.245,4.232,9.92,4.813c0.244,1.847,0.377,3.706,0.534,5.564 c-0.284,2.699,0.111,6.524,0.581,10.021c0.014,0.47,0.048,0.94,0.06,1.409c0.045,1.838-0.45,4.976-0.335,7.716 c-0.739,0.809-1.749,1.857-2.893,3.026c-2.787,1.258-4.947,2.845-6.682,4.662c-0.845-1.586-2.311-2.504-3.834-3.567 c-1.509-1.053-3.064-2.041-4.662-2.954c-1.262-0.721-2.595-1.38-3.957-1.969c-4.376-3.244-8.822-5.199-11.679-1.643 c-1.307,1.626-1.804,3.57-1.818,5.572c-1.425,6.018,3.237,13.474,7.987,16.484c3.018,1.914,7.186,2.521,10.511,1.07 c-4.102,8.486-7.106,19.614-3.269,27.564c-0.409,1.09-0.83,2.177-1.361,3.225c-1.084,2.138,0.27,4.387,2.618,4.562 c2.538,0.19,5.228,0.422,7.999,0.646c10.296,4.633,24.567,2.45,34.461-0.581c0.8-0.245,1.702-0.683,2.597-1.245 c2.905-0.902,5.68-2.062,8.234-3.591c0.326,0.244,0.717,0.415,1.21,0.4c0.299-0.009,0.562-0.048,0.85-0.067 c2.739,0.692,5.476,0.191,7.039-2.014c1.707-1.065,2.873-2.449,3.517-3.98c4.939-0.574,7.838-2.74,9.06-5.463 c0.146,0.006,0.254,0.063,0.409,0.052c14.292-1.078,28.603-0.995,42.906-1.678c1.587-0.076,2.9-1.266,2.907-2.907 c0.051-12.031,1.01-23.985,2.218-35.948C159.827,122.824,158.278,121.573,156.867,121.556z M126.781,114.788 c0.052-0.027,0.031-0.021,0.064-0.04c0.008-0.002,0.016-0.004,0.024-0.007c0.002-0.003,0.003-0.008,0.005-0.011 c0.003-0.002,0.005-0.003,0.007-0.004c-0.003,0.006-0.003,0.008-0.005,0.014c-0.001,0-0.001,0-0.001,0h0.001 c-0.098,0.22,0.097,0.065,0.168-0.046c0.062-0.015,0.123-0.037,0.185-0.05c0.226-0.018,0.453-0.018,0.679-0.01 c0.256,0.05,0.509,0.119,0.759,0.193c0.158,0.059,0.213,0.075,0.239,0.081c0.111,0.055,0.225,0.105,0.334,0.163 c0.206,0.105,1.341,0.879,0.924,0.547c0.89,0.71,1.361,1.295,1.779,1.948c0.592,0.923,0.785,1.553,1.036,2.781 c0.023,0.112,0.014,0.256,0.023,0.38c-2.096-0.093-4.194-0.157-6.291-0.241c-0.111-1.336-0.35-2.642-0.312-3.994 c0.021-0.771,0.23-1.338,0.469-1.75C126.828,114.767,126.839,114.748,126.781,114.788z M115.804,125.847 c-0.896,1.291-1.781,2.583-2.986,3.661c-1.383,1.236-3.131,1.782-4.929,1.944c-0.021-1.784-0.034-3.57-0.074-5.355 C110.477,125.938,113.14,125.873,115.804,125.847z M29.561,135.484c-1.058-0.627-1.959-1.514-2.735-2.499 c-0.082-0.159-0.158-0.321-0.234-0.483c-0.024-0.052-0.017-0.035-0.034-0.07c-0.257-0.641-0.458-1.302-0.612-1.975 c-0.028-0.123-0.051-0.25-0.074-0.375c-0.031-0.313-0.045-0.63-0.039-0.944c0.001-0.077,0-0.115,0-0.163 c0.03-0.157,0.083-0.307,0.13-0.459c0.034-0.076,0.067-0.139,0.107-0.215c0.094-0.066,0.219-0.152,0.336-0.224 c0.112-0.034,0.225-0.067,0.339-0.097c0.08-0.02,0.125-0.033,0.174-0.047c0.039,0.002,0.101,0.001,0.206-0.005 c0.449-0.026,0.9,0.002,1.347,0.044c0.02,0.002,0.007,0,0.024,0.001c0.038,0.007,0.022,0.007,0.107,0.021 c0.234,0.039,0.466,0.091,0.698,0.141c0.511,0.109,1.014,0.256,1.514,0.409c1.224,0.374,2.298,0.92,3.518,1.553 c1.467,0.761,2.884,1.619,4.277,2.506c0.433,0.276,0.849,0.572,1.263,0.864c1.028,0.864,2.109,1.671,3.277,2.214 c-0.602,0.99-1.121,2.026-1.565,3.104C37.381,138.637,33.02,137.535,29.561,135.484z M94.185,171.137 c-0.261,0.084-0.524,0.174-0.779,0.247c-0.201-0.741-0.665-1.435-1.258-1.838c-5.071-3.456-10.156-5.185-15.905-5.872 c0.498-1.41,0.84-2.827,1.103-4.242c1.735-7.798-1.5-16.67-7.98-21.398c-2.324-1.694-4.461,0.75-4.228,3.029 c-0.313,1.044-0.09,2.243,1.098,2.989c0.417,0.262,0.799,0.539,1.168,0.819c3.39,4.889,4.319,9.574,4.224,15.22 c-0.444,1.562-1.053,3.117-1.798,4.62c-0.938,1.89,0.202,4.089,2.387,4.159c0.188,0.007,0.361,0.032,0.548,0.041 c7.541,3.537,8.043,5.732,1.396,6.566c-0.813,0.226-1.663,0.376-2.515,0.522c-7.545,0.929-15.675,0.467-23.255-0.208 c-2.687-0.902-5.012-2.509-6.55-5.303c1.766-7.899,1.878-16.535,3.84-24.071c3.207-5.455,7.206-10.389,10.37-13.781 c1.066-1.144,1.986-2.042,2.797-2.814c0.166-0.076,0.3-0.169,0.47-0.242c0.512-0.221,0.8-0.576,0.935-0.978 c0.045-0.061,0.063-0.15,0.105-0.214c2.966-2.835,3.463-3.92,2.289-11.562c-0.646-4.207-0.9-9.841-3.239-13.875 c-0.147-0.913-0.292-1.826-0.48-2.733c0.657-0.033,1.314-0.085,1.967-0.176c4.932-0.686,9.747-4.177,10.681-9.267 c1.31-7.146-4.508-13.192-10.154-16.495c-0.823-0.48-1.581-0.19-1.996,0.388c-1.74,0.5-2.885,2.717-1.224,4.272 c2.935,2.751,6.804,7.317,2.344,10.596c-4.794,3.525-10.535-0.501-13.234-4.598c-1.655-2.514-2.971-5.736-3.581-9.037 c0.298-0.33,0.489-0.789,0.476-1.407c-0.178-8.354,2.913-12.559,7.234-13.725c5.741-1.112,12.113,3.593,16.003,7.19 c0.633,0.585,1.397,0.805,2.15,0.775c0.223,0.253,0.46,0.486,0.676,0.748c1.033,1.258,2.806,0.851,3.893,0 c2.054-1.606,4.771-3.38,7.682-4.707c3.817-0.597,7.601-0.045,10.073,3.358c5.549,7.637-5.144,13.302-9.363,17.568 c-1.465,1.481-0.616,3.625,1.009,4.231c0.369,0.329,0.84,0.562,1.39,0.601c-0.239,0.036-0.244,0.408,0.019,0.408 s0.258-0.373,0.019-0.409c0.186,0.012,0.367,0.033,0.566-0.002c3.155-0.547,6.44-2.165,9.359-4.396 c-0.16,1.438-0.476,2.788-0.971,4.025c-0.642,0.97-1.368,1.908-2.335,2.792c-2.437,2.229-5.616,3.606-8.869,4.126 c-0.535-0.379-1.206-0.534-1.841-0.385c-0.129,0.031-0.258,0.062-0.388,0.092c-1.218,0.289-2.137,1.532-2.11,2.772 c0.004,0.19,0.012,0.376,0.016,0.565c-0.327,0.618-0.496,1.335-0.324,2.109c0.183,0.824,0.316,1.653,0.449,2.482 c0.073,2.076,0.179,4.148,0.371,6.238c-0.39-0.304-0.735-0.639-1.135-0.936c-1.232-0.916-2.724,0.377-2.776,1.645 c-1.859,0.489-2.878,3.294-1.498,4.76c-1.872-0.231-3.925,1.68-2.61,3.709c4.139,6.391,8.022,13.508,10.255,20.985 c0.817,4.607,1.235,9.384,1.896,14.271c-0.056,1.21-0.149,2.422-0.331,3.637c-0.253,1.688,0.667,3.248,2.494,3.331 c0.443,0.189,0.929,0.255,1.388,0.164C91.863,163.406,94.979,168.431,94.185,171.137z M102.432,164.81 c-1.312-4.456-6.162-8.253-13.553-7.318c-0.249-0.052-0.495-0.109-0.746-0.151c0.614-8.612-1.55-17.185-5.022-25.21 c-0.615-1.656-1.354-3.256-2.244-4.79c-1.716-3.394-3.619-6.664-5.591-9.768c-0.035-0.056-0.087-0.078-0.125-0.13 c12.51,6.148,20.252,18.637,17.824,32.84c-0.271,1.59,0.515,2.922,1.816,3.37c0.44,0.544,1.081,0.927,1.775,0.873 c4.317-0.334,7.548,1.49,8.759,3.904C105.807,160.615,104.971,163.071,102.432,164.81z M151.737,157.315 c-2.896-0.113-5.799-0.173-8.701-0.214c0.671-1.154,1.495-2.216,2.6-2.973c1.644-1.127,3.746-1.281,5.323-2.46 c1.729-1.294,1.048-3.603-1.05-3.875c-2.607-0.339-5.397,1.561-7.323,3.131c-1.91,1.556-3.01,3.782-3.494,6.153 c-9.164-0.025-18.335,0.278-27.451,0.966c-0.148,0.011-0.252,0.084-0.391,0.109c-0.424-1.131-1.064-2.22-1.876-3.223 c-0.637-1.249-1.506-2.4-2.591-3.399c1.804-1.879,1.254-5.101,1.229-7.458c-0.037-3.427-0.059-6.854-0.091-10.284 c5.008-0.205,9.813-3.034,11.564-7.944c4.981,0.04,9.965,0.225,14.948,0.461c0.976,0.701,2.249,0.882,3.305,0.156 c2.237,0.109,4.475,0.215,6.712,0.314c-0.255,1.315-0.054,2.664,0.977,3.996c1.57,2.03,4.932,3.165,7.767,3 C152.507,141.609,151.951,149.449,151.737,157.315z M153.643,128.877c-1.564-0.219-3.204-0.157-4.664-0.872 c-0.481-0.236-0.727-0.63-0.844-1.088c1.89,0.07,3.78,0.146,5.67,0.185C153.749,127.694,153.699,128.286,153.643,128.877z"/> </g> <path d="M174.077,65.405c-19.722-21.544-44.941-61.494-76.73-65.231C81.766-1.659,68.434,11.412,57.25,20.545 C40.193,34.471,19.609,47.131,8.747,66.848c-2.016,3.66,2.74,7.375,5.762,4.446c12.96-12.56,27.854-22.366,41.748-33.763 c10.663-8.746,27.05-28.186,42.289-24.545c14.643,3.499,27.383,18.307,37.421,28.64c10.187,10.487,19.363,21.885,29.202,32.687 C170.647,80.328,179.55,71.386,174.077,65.405z"/> </g> </g>
</svg>